<?xml version="1.0" standalone="no"?>
<!DOCTYPE svg PUBLIC "-//W3C//DTD SVG 20010904//EN"
 "http://www.w3.org/TR/2001/REC-SVG-20010904/DTD/svg10.dtd">
<svg version="1.0" xmlns="http://www.w3.org/2000/svg"
 width="512.000000pt" height="512.000000pt" viewBox="0 0 512.000000 512.000000"
 preserveAspectRatio="xMidYMid meet">

<g transform="translate(0.000000,512.000000) scale(0.100000,-0.100000)"
fill="#000000" stroke="none">
<path d="M2632 4578 c-31 -35 -128 -255 -182 -418 -39 -117 -87 -295 -125
-467 -6 -25 -4 -25 -205 -48 -403 -48 -647 -135 -801 -285 -116 -115 -168
-232 -176 -400 -9 -201 46 -351 175 -479 l75 -74 -13 -134 c-36 -369 44 -709
231 -978 94 -137 181 -201 476 -349 84 -42 179 -97 212 -122 94 -71 141 -157
156 -285 8 -76 30 -99 94 -99 82 0 112 38 126 161 3 30 17 78 30 106 39 85 92
127 265 210 191 91 221 107 290 153 177 120 325 326 405 565 62 189 84 493 50
704 -9 52 -14 95 -13 97 2 2 45 46 96 98 103 105 129 152 163 287 27 105 23
235 -11 319 -92 237 -385 398 -845 465 -60 9 -170 19 -243 22 l-134 6 7 66
c17 163 75 355 174 569 34 73 61 139 61 146 0 7 -8 20 -17 28 -35 29 -264 158
-282 158 -9 0 -27 -10 -39 -22z m141 -135 c49 -27 91 -53 94 -58 2 -6 -21 -65
-51 -130 -100 -221 -147 -387 -160 -567 -7 -82 -6 -87 16 -102 17 -12 47 -16
115 -16 235 0 563 -75 758 -172 140 -70 266 -185 313 -285 24 -52 27 -70 27
-163 0 -97 -2 -110 -32 -172 -31 -67 -77 -119 -197 -226 l-59 -52 7 -73 c24
-286 17 -423 -33 -619 -82 -316 -256 -569 -470 -682 -37 -19 -117 -56 -177
-81 -59 -25 -128 -57 -153 -72 -62 -36 -147 -118 -178 -171 l-26 -44 -28 50
c-76 131 -157 192 -446 336 -230 115 -291 160 -364 267 -169 250 -235 555
-194 906 10 83 15 163 11 177 -4 17 -25 39 -60 60 -104 67 -168 174 -188 316
-23 154 23 299 126 402 139 138 345 208 766 259 96 12 185 28 197 35 15 9 25
30 31 66 65 347 102 490 167 658 46 119 83 200 91 200 4 0 47 -21 97 -47z"/>
</g>
</svg>
